<svg width="500" height="460" viewBox="0 0 500 460" xmlns="http://www.w3.org/2000/svg">
  <circle cx="250" cy="230" r="210" fill="#ffefb3"/>
  <ellipse cx="250" cy="410" rx="160" ry="18" fill="#013e37" fill-opacity="0.08"/>

  <!-- technician -->
  <g transform="translate(150,150)">
    <rect x="25" y="170" width="20" height="80" rx="8" fill="#013e37"/>
    <rect x="60" y="170" width="20" height="80" rx="8" fill="#013e37"/>
    <rect x="10" y="70" width="90" height="110" rx="18" fill="#ffffff" stroke="#013e37" stroke-width="6"/>
    <rect x="-14" y="80" width="26" height="80" rx="12" fill="#ffffff" stroke="#013e37" stroke-width="6"/>
    <rect x="98" y="80" width="26" height="80" rx="12" fill="#ffffff" stroke="#013e37" stroke-width="6"/>
    <circle cx="55" cy="35" r="34" fill="#f4c9a1"/>
    <path d="M20 28 a35 28 0 0 1 70 0 z" fill="#013e37"/>
    <rect x="16" y="24" width="78" height="11" rx="5" fill="#013e37"/>
  </g>

  <!-- speech bubble with question mark -->
  <g transform="translate(280,60)">
    <path d="M0 40 a40 40 0 1 1 22 71 l-8 22 -6 -24 a40 40 0 0 1 -8 -69z" fill="#ffffff" stroke="#013e37" stroke-width="6"/>
    <text x="40" y="65" font-family="Lexend, Arial, sans-serif" font-size="46" font-weight="700" fill="#013e37" text-anchor="middle">?</text>
  </g>
</svg>
